<svg width="720" height="720" viewBox="0 0 720 720" fill="none" xmlns="http://www.w3.org/2000/svg">
<rect width="720" height="720" fill="black" fill-opacity="0"/>
<circle cx="360" cy="360" r="300" fill="#F2EFEF" fill-opacity="0.62"/>
<path d="M572 353.971C572 471.31 456.492 587.258 352.368 558.586C238.394 575.977 148 471.31 148 353.971C148 236.633 285.894 81.815 360 200.736C428.478 136.34 572 236.633 572 353.971Z" fill="#A3C73D" fill-opacity="0.84"/>
<path d="M413.791 117.045L421.274 120.965L417.851 148.117L404.844 173.509L387.33 192.063L368.947 211.008L356.122 201.52L376.546 184.961L394.411 165.766L407.061 142.7L413.791 117.045Z" fill="#661414" fill-opacity="0.88"/>
<path d="M485 368.622C386 396.5 354 407.245 287.5 480L297.5 420.245V358.245V302.745L287.5 239.245L337.2 282L378.2 312L433.2 342L485 368.622Z" fill="#0B6257"/>
<path d="M334.668 351.472C335.015 351.784 335.309 352.148 335.552 352.564C335.795 352.945 335.968 353.327 336.072 353.708C336.176 354.089 336.193 354.436 336.124 354.748C336.089 355.025 335.968 355.216 335.76 355.32C335.483 355.459 335.067 355.372 334.512 355.06C333.992 354.713 333.455 354.401 332.9 354.124C332.553 353.951 331.981 353.743 331.184 353.5C330.421 353.257 329.572 353.171 328.636 353.24C326.764 353.413 325.343 354.332 324.372 355.996C323.401 357.625 322.951 359.688 323.02 362.184C323.055 363.293 323.211 364.368 323.488 365.408C323.765 366.413 324.164 367.315 324.684 368.112C325.239 368.909 325.915 369.551 326.712 370.036C327.544 370.487 328.515 370.695 329.624 370.66C330.907 370.625 332.033 370.435 333.004 370.088C334.009 369.741 334.893 369.325 335.656 368.84C335.899 368.701 336.159 368.545 336.436 368.372C336.748 368.199 337.025 368.06 337.268 367.956C337.545 367.817 337.771 367.731 337.944 367.696C338.152 367.661 338.308 367.696 338.412 367.8C338.516 367.973 338.533 368.199 338.464 368.476C338.395 368.753 338.273 369.048 338.1 369.36C337.961 369.672 337.788 369.967 337.58 370.244C337.372 370.521 337.181 370.764 337.008 370.972C336.037 372.012 334.841 372.809 333.42 373.364C331.999 373.919 330.508 374.196 328.948 374.196C327.249 374.196 325.724 373.884 324.372 373.26C323.02 372.636 321.859 371.787 320.888 370.712C319.952 369.637 319.224 368.372 318.704 366.916C318.184 365.46 317.907 363.917 317.872 362.288C317.837 360.693 318.028 359.151 318.444 357.66C318.895 356.135 319.553 354.783 320.42 353.604C321.287 352.425 322.327 351.472 323.54 350.744C324.788 349.981 326.192 349.548 327.752 349.444C328.584 349.375 329.364 349.409 330.092 349.548C330.82 349.652 331.461 349.825 332.016 350.068C332.605 350.276 333.125 350.519 333.576 350.796C334.027 351.039 334.391 351.264 334.668 351.472ZM343.525 342.32C343.525 341.939 343.387 341.748 343.109 341.748C342.797 341.748 342.364 341.748 341.809 341.748C341.289 341.713 340.821 341.644 340.405 341.54C339.989 341.436 339.643 341.228 339.365 340.916C339.088 340.604 338.949 340.396 338.949 340.292C338.949 340.049 339.14 339.789 339.521 339.512C339.903 339.235 340.215 339.027 340.457 338.888C341.289 338.472 342.243 338.073 343.317 337.692C344.427 337.311 345.345 337.12 346.073 337.12C346.281 337.12 346.489 337.207 346.697 337.38C346.94 337.553 347.148 337.761 347.321 338.004C347.529 338.212 347.685 338.437 347.789 338.68C347.928 338.888 347.997 339.061 347.997 339.2V352.148C348.587 351.455 349.419 350.831 350.493 350.276C351.603 349.721 352.764 349.444 353.977 349.444C355.156 349.444 356.265 349.652 357.305 350.068C358.38 350.449 359.299 351.073 360.061 351.94C360.859 352.807 361.483 353.933 361.933 355.32C362.419 356.707 362.661 358.388 362.661 360.364C362.661 361.335 362.627 362.409 362.557 363.588C362.488 364.767 362.436 365.963 362.401 367.176C362.401 368.389 362.436 369.603 362.505 370.816C362.609 371.995 362.817 373.069 363.129 374.04C363.303 374.491 363.511 374.976 363.753 375.496C363.996 376.051 363.979 376.467 363.701 376.744C363.563 376.848 363.355 376.883 363.077 376.848C362.8 376.848 362.505 376.796 362.193 376.692C361.881 376.623 361.569 376.536 361.257 376.432C360.98 376.328 360.772 376.224 360.633 376.12C359.94 375.669 359.403 375.045 359.021 374.248C358.675 373.451 358.415 372.584 358.241 371.648C358.068 370.712 357.964 369.741 357.929 368.736C357.929 367.731 357.929 366.777 357.929 365.876C357.964 363.727 357.895 361.959 357.721 360.572C357.583 359.185 357.323 358.076 356.941 357.244C356.595 356.377 356.144 355.753 355.589 355.372C355.035 354.956 354.376 354.661 353.613 354.488C352.816 354.315 351.845 354.367 350.701 354.644C349.592 354.887 348.691 355.355 347.997 356.048V364.68C347.997 366.379 347.859 367.852 347.581 369.1C347.339 370.348 347.009 371.388 346.593 372.22C346.212 373.052 345.779 373.659 345.293 374.04C344.843 374.421 344.409 374.577 343.993 374.508C343.751 374.473 343.595 374.127 343.525 373.468C343.456 372.809 343.421 372.012 343.421 371.076C343.421 370.105 343.439 369.1 343.473 368.06C343.508 367.02 343.525 366.084 343.525 365.252V342.32ZM394.265 359.012C394.265 363.623 393.087 367.193 390.729 369.724C388.407 372.255 385.252 373.52 381.265 373.52C378.804 373.52 376.603 372.965 374.661 371.856C372.755 370.712 371.247 369.065 370.137 366.916C369.028 364.732 368.473 362.097 368.473 359.012C368.473 354.401 369.635 350.848 371.957 348.352C374.28 345.856 377.435 344.608 381.421 344.608C383.259 344.608 384.94 344.92 386.465 345.544C388.025 346.168 389.36 347.052 390.469 348.196C392.029 347.711 393 346.809 393.381 345.492C393.763 344.14 393.953 342.597 393.953 340.864H398.841L399.205 341.436C398.755 343.828 398.027 345.839 397.021 347.468C396.016 349.063 394.508 350.224 392.497 350.952C393.052 352.027 393.485 353.24 393.797 354.592C394.109 355.944 394.265 357.417 394.265 359.012ZM373.205 359.012C373.205 362.513 373.847 365.183 375.129 367.02C376.447 368.823 378.527 369.724 381.369 369.724C384.247 369.724 386.327 368.823 387.609 367.02C388.892 365.183 389.533 362.513 389.533 359.012C389.533 355.511 388.875 352.876 387.557 351.108C386.275 349.34 384.195 348.456 381.317 348.456C378.475 348.456 376.412 349.34 375.129 351.108C373.847 352.876 373.205 355.511 373.205 359.012ZM402.18 353.344C402.18 353.136 402.146 353.015 402.076 352.98C402.042 352.911 401.99 352.859 401.92 352.824C401.574 352.72 401.158 352.616 400.672 352.512C400.187 352.373 399.823 352.252 399.58 352.148C399.234 351.975 398.939 351.732 398.696 351.42C398.454 351.073 398.332 350.727 398.332 350.38C398.332 350.137 398.523 349.929 398.904 349.756C399.286 349.548 399.598 349.409 399.84 349.34C400.707 349.063 401.504 348.855 402.232 348.716C402.96 348.577 403.74 348.525 404.572 348.56C404.988 348.56 405.318 348.647 405.56 348.82C405.838 348.993 406.028 349.201 406.132 349.444C406.271 349.652 406.358 349.877 406.392 350.12C406.462 350.328 406.496 350.501 406.496 350.64V366.604C406.496 367.436 406.41 368.355 406.236 369.36C406.063 370.331 405.838 371.249 405.56 372.116C405.318 372.948 405.006 373.641 404.624 374.196C404.278 374.751 403.931 375.028 403.584 375.028C403.272 375.028 403.03 374.699 402.856 374.04C402.683 373.416 402.544 372.653 402.44 371.752C402.336 370.851 402.267 369.932 402.232 368.996C402.198 368.06 402.18 367.28 402.18 366.656V353.344ZM403.844 345.804C403.463 345.873 402.926 345.769 402.232 345.492C401.574 345.18 401.036 344.781 400.62 344.296C400.343 343.984 400.204 343.62 400.204 343.204C400.239 342.753 400.343 342.337 400.516 341.956C400.724 341.54 400.984 341.193 401.296 340.916C401.643 340.639 402.007 340.5 402.388 340.5C402.804 340.5 403.22 340.569 403.636 340.708C404.087 340.812 404.486 340.985 404.832 341.228C405.214 341.436 405.526 341.679 405.768 341.956C406.011 342.233 406.132 342.528 406.132 342.84C406.132 343.429 405.907 344.053 405.456 344.712C405.006 345.371 404.468 345.735 403.844 345.804Z" fill="#FDFDFD"/>
</svg>
