<svg width="720" height="720" viewBox="0 0 720 720" fill="none" xmlns="http://www.w3.org/2000/svg">
<circle cx="360" cy="360" r="300" fill="#F2EFEF" fill-opacity="0.62"/>
<path d="M572 353.971C572 471.31 456.492 587.258 352.368 558.586C238.394 575.977 148 471.31 148 353.971C148 236.633 285.894 81.815 360 200.736C428.478 136.34 572 236.633 572 353.971Z" fill="#A3C73D" fill-opacity="0.84"/>
<path d="M413.791 117.045L421.274 120.965L417.851 148.117L404.844 173.509L387.33 192.063L368.947 211.008L356.122 201.52L376.546 184.961L394.411 165.766L407.061 142.7L413.791 117.045Z" fill="#661414" fill-opacity="0.88"/>
<path d="M200.68 344.816C200.168 344.816 199.56 344.816 198.856 344.816C198.152 344.752 197.448 344.688 196.744 344.624C196.104 344.496 195.496 344.368 194.92 344.24C194.408 344.048 194.12 343.824 194.056 343.568C193.928 343.312 193.928 342.96 194.056 342.512C194.248 342 194.472 341.52 194.728 341.072C194.984 340.56 195.24 340.144 195.496 339.824C195.816 339.44 196.072 339.184 196.264 339.056C197.544 338.48 198.824 338.032 200.104 337.712C201.384 337.392 202.76 337.296 204.232 337.424C204.68 337.424 205.096 337.616 205.48 338C205.928 338.32 206.312 338.736 206.632 339.248C207.016 339.696 207.304 340.176 207.496 340.688C207.688 341.136 207.848 341.488 207.976 341.744C208.744 341.104 209.608 340.496 210.568 339.92C211.592 339.344 212.648 338.864 213.736 338.48C214.824 338.032 215.912 337.712 217 337.52C218.088 337.264 219.08 337.104 219.976 337.04C222.344 336.912 224.488 337.136 226.408 337.712C228.328 338.288 229.96 339.152 231.304 340.304C232.712 341.392 233.8 342.768 234.568 344.432C235.336 346.032 235.752 347.824 235.816 349.808C235.88 351.28 235.688 352.816 235.24 354.416C234.792 356.016 234.12 357.584 233.224 359.12C232.392 360.656 231.336 362.096 230.056 363.44C228.84 364.784 227.432 365.872 225.832 366.704C228.008 366.64 230.12 366.864 232.168 367.376C234.216 367.888 236.008 368.72 237.544 369.872C239.144 370.96 240.392 372.368 241.288 374.096C242.184 375.824 242.6 377.872 242.536 380.24C242.408 382.544 241.768 384.72 240.616 386.768C239.528 388.752 237.928 390.512 235.816 392.048C233.704 393.52 231.144 394.672 228.136 395.504C225.192 396.272 221.8 396.624 217.96 396.56C217.32 396.56 216.456 396.496 215.368 396.368C214.28 396.176 213.192 395.92 212.104 395.6C211.08 395.28 210.184 394.928 209.416 394.544C208.648 394.096 208.264 393.616 208.264 393.104C208.264 392.656 208.616 392.304 209.32 392.048C210.024 391.728 210.856 391.472 211.816 391.28C212.776 391.088 213.768 390.928 214.792 390.8C215.816 390.672 216.616 390.576 217.192 390.512C222.44 389.872 226.376 388.464 229 386.288C231.688 384.048 232.968 381.52 232.84 378.704C232.776 377.232 232.392 376.016 231.688 375.056C230.984 374.032 230.056 373.2 228.904 372.56C227.816 371.856 226.536 371.312 225.064 370.928C223.656 370.544 222.184 370.192 220.648 369.872C218.984 370.576 217.352 371.024 215.752 371.216C215.048 371.344 214.312 371.408 213.544 371.408C212.776 371.344 212.328 371.056 212.2 370.544C212.072 369.968 212.296 369.264 212.872 368.432C213.448 367.536 214.184 366.832 215.08 366.32C216.168 365.68 217.384 364.88 218.728 363.92C220.136 362.896 221.448 361.744 222.664 360.464C223.944 359.12 224.968 357.648 225.736 356.048C226.568 354.448 226.952 352.688 226.888 350.768C226.824 348.784 226.056 347.152 224.584 345.872C223.176 344.592 221.288 343.952 218.92 343.952C216.808 343.952 214.856 344.336 213.064 345.104C211.272 345.808 209.8 346.736 208.648 347.888C208.776 350.64 208.904 353.776 209.032 357.296C209.16 360.816 209.224 364.112 209.224 367.184C209.224 370.64 209.064 374.448 208.744 378.608C208.424 382.768 207.816 386.768 206.92 390.608C206.792 391.184 206.536 391.984 206.152 393.008C205.832 393.968 205.416 394.96 204.904 395.984C204.456 397.008 203.944 397.872 203.368 398.576C202.856 399.344 202.376 399.728 201.928 399.728C201.608 399.728 201.256 399.504 200.872 399.056C200.552 398.608 200.264 398.128 200.008 397.616C199.752 397.104 199.528 396.624 199.336 396.176C199.208 395.664 199.144 395.344 199.144 395.216C199.208 394.448 199.304 393.712 199.432 393.008C199.624 392.24 199.784 391.504 199.912 390.8C200.232 389.072 200.488 387.152 200.68 385.04C200.936 382.864 201.128 380.656 201.256 378.416C201.448 376.176 201.544 373.968 201.544 371.792C201.608 369.552 201.608 367.504 201.544 365.648L200.68 344.816ZM272.679 345.68C278.951 345.68 283.591 347.056 286.599 349.808C289.607 352.56 291.111 356.944 291.111 362.96V398H284.967L283.335 390.704H282.951C280.711 393.52 278.343 395.6 275.847 396.944C273.415 398.288 270.023 398.96 265.671 398.96C260.999 398.96 257.127 397.744 254.055 395.312C250.983 392.816 249.447 388.944 249.447 383.696C249.447 378.576 251.463 374.64 255.495 371.888C259.527 369.072 265.735 367.536 274.119 367.28L282.855 366.992V363.92C282.855 359.632 281.927 356.656 280.071 354.992C278.215 353.328 275.591 352.496 272.199 352.496C269.511 352.496 266.951 352.912 264.519 353.744C262.087 354.512 259.815 355.408 257.703 356.432L255.111 350.096C257.351 348.88 260.007 347.856 263.079 347.024C266.151 346.128 269.351 345.68 272.679 345.68ZM282.759 372.848L275.175 373.136C268.775 373.392 264.327 374.416 261.831 376.208C259.399 378 258.183 380.528 258.183 383.792C258.183 386.672 259.047 388.784 260.775 390.128C262.567 391.472 264.839 392.144 267.591 392.144C271.943 392.144 275.559 390.96 278.439 388.592C281.319 386.16 282.759 382.448 282.759 377.456V372.848ZM282.951 316.976V317.936C281.543 319.728 280.007 321.488 278.343 323.216C276.679 324.88 275.015 326.352 273.351 327.632H268.647V326.576C269.863 324.976 270.919 323.472 271.815 322.064C272.711 320.656 273.639 318.96 274.599 316.976H282.951ZM286.023 327.248C285.703 331.088 284.359 334.16 281.991 336.464C279.623 338.704 276.199 339.824 271.719 339.824C267.175 339.824 263.751 338.704 261.447 336.464C259.207 334.224 257.959 331.152 257.703 327.248H262.791C263.111 329.872 264.007 331.568 265.479 332.336C266.951 333.104 269.063 333.488 271.815 333.488C274.247 333.488 276.295 333.072 277.959 332.24C279.623 331.408 280.615 329.744 280.935 327.248H286.023ZM309.692 353.264C309.692 351.28 309.564 349.712 309.308 348.56C309.116 347.408 308.572 346.224 307.676 345.008C307.484 344.816 307.356 344.528 307.292 344.144C307.292 343.696 307.324 343.248 307.388 342.8C307.452 342.352 307.58 341.936 307.772 341.552C307.964 341.168 308.188 340.88 308.444 340.688C308.956 340.432 309.724 340.528 310.748 340.976C311.772 341.36 312.796 341.904 313.82 342.608C314.908 343.248 315.868 343.952 316.7 344.72C317.532 345.424 318.044 345.968 318.236 346.352C318.812 347.056 319.1 347.792 319.1 348.56C318.78 349.712 318.588 350.736 318.524 351.632C318.524 352.464 318.524 353.456 318.524 354.608V356.816C319.996 356.624 321.436 356.432 322.844 356.24C324.252 355.984 325.692 355.728 327.164 355.472C327.548 355.408 327.964 355.408 328.412 355.472C328.924 355.536 329.404 355.664 329.852 355.856C330.3 355.984 330.684 356.176 331.004 356.432C331.324 356.624 331.484 356.816 331.484 357.008C331.484 357.52 331.324 358.096 331.004 358.736C330.748 359.312 330.364 359.888 329.852 360.464C329.404 360.976 328.892 361.424 328.316 361.808C327.804 362.192 327.324 362.384 326.876 362.384C325.02 362.384 323.228 362.48 321.5 362.672L318.524 362.96V375.632C318.524 377.872 318.556 380.144 318.62 382.448C318.684 384.688 318.94 386.768 319.388 388.688C319.836 390.544 320.572 392.08 321.596 393.296C322.62 394.448 324.092 395.024 326.012 395.024C326.46 395.024 326.94 394.992 327.452 394.928C328.028 394.864 328.54 394.832 328.988 394.832C329.5 394.768 329.916 394.8 330.236 394.928C330.62 394.992 330.812 395.184 330.812 395.504C330.812 395.76 330.684 396.112 330.428 396.56C330.236 397.008 329.884 397.488 329.372 398C328.924 398.448 328.284 398.864 327.452 399.248C326.684 399.696 325.756 399.984 324.668 400.112C322.236 400.432 319.9 400.144 317.66 399.248C315.484 398.352 313.852 397.104 312.764 395.504C311.228 393.328 310.332 390.704 310.076 387.632C309.82 384.56 309.692 380.688 309.692 376.016V363.92C308.796 363.984 307.9 364.016 307.004 364.016C306.108 364.016 305.148 364.016 304.124 364.016C303.74 364.016 303.228 363.92 302.588 363.728C302.012 363.536 301.436 363.28 300.86 362.96C300.284 362.576 299.772 362.16 299.324 361.712C298.94 361.264 298.748 360.784 298.748 360.272C298.812 359.888 298.94 359.504 299.132 359.12C299.388 358.672 299.612 358.416 299.804 358.352C300.38 358.352 300.988 358.352 301.628 358.352C302.268 358.288 302.908 358.224 303.548 358.16L309.692 357.488V353.264ZM383.338 398.96C376.938 398.96 371.818 396.752 367.978 392.336C364.138 387.856 362.218 381.264 362.218 372.56C362.218 363.6 364.138 356.912 367.978 352.496C371.882 348.08 377.002 345.872 383.338 345.872C387.37 345.872 390.634 346.608 393.13 348.08C395.69 349.552 397.77 351.344 399.37 353.456H399.946C399.818 352.624 399.69 351.408 399.562 349.808C399.434 348.144 399.37 346.8 399.37 345.776V339.92H378.922V333.584H399.37V325.04H407.818V333.584H415.114V339.92H407.818V398H400.906L399.658 391.088H399.274C397.738 393.264 395.69 395.12 393.13 396.656C390.57 398.192 387.306 398.96 383.338 398.96ZM384.778 391.952C390.154 391.952 393.93 390.48 396.106 387.536C398.346 384.592 399.466 380.144 399.466 374.192V372.56C399.466 366.096 398.41 361.2 396.298 357.872C394.186 354.544 390.282 352.88 384.586 352.88C380.042 352.88 376.65 354.64 374.41 358.16C372.17 361.68 371.049 366.512 371.049 372.656C371.049 378.8 372.17 383.568 374.41 386.96C376.65 390.288 380.106 391.952 384.778 391.952ZM443.836 345.68C450.108 345.68 454.748 347.056 457.756 349.808C460.764 352.56 462.268 356.944 462.268 362.96V398H456.124L454.492 390.704H454.108C451.868 393.52 449.5 395.6 447.004 396.944C444.572 398.288 441.18 398.96 436.828 398.96C432.156 398.96 428.284 397.744 425.212 395.312C422.14 392.816 420.604 388.944 420.604 383.696C420.604 378.576 422.62 374.64 426.652 371.888C430.684 369.072 436.892 367.536 445.276 367.28L454.012 366.992V363.92C454.012 359.632 453.084 356.656 451.228 354.992C449.372 353.328 446.748 352.496 443.356 352.496C440.668 352.496 438.108 352.912 435.676 353.744C433.244 354.512 430.972 355.408 428.859 356.432L426.268 350.096C428.508 348.88 431.164 347.856 434.236 347.024C437.308 346.128 440.508 345.68 443.836 345.68ZM453.916 372.848L446.332 373.136C439.932 373.392 435.484 374.416 432.988 376.208C430.556 378 429.34 380.528 429.34 383.792C429.34 386.672 430.204 388.784 431.932 390.128C433.724 391.472 435.996 392.144 438.748 392.144C443.1 392.144 446.716 390.96 449.596 388.592C452.476 386.16 453.916 382.448 453.916 377.456V372.848ZM427.612 330.704C425.82 329.36 424.092 327.888 422.428 326.288C420.828 324.624 419.324 322.864 417.916 321.008V320.048H426.268C427.292 322.096 428.22 323.824 429.052 325.232C429.948 326.576 431.004 328.048 432.22 329.648V330.704H427.612ZM428.476 339.824V338.768C430.076 336.912 431.804 334.96 433.66 332.912C435.516 330.8 437.18 328.656 438.652 326.48H447.58C449.052 328.656 450.716 330.8 452.572 332.912C454.428 334.96 456.156 336.912 457.756 338.768V339.824H452.956C451.356 338.736 449.724 337.552 448.06 336.272C446.396 334.928 444.732 333.52 443.068 332.048C441.468 333.52 439.804 334.928 438.076 336.272C436.412 337.552 434.78 338.736 433.18 339.824H428.476ZM485.168 375.44C485.168 377.424 485.2 379.344 485.264 381.2C485.392 382.992 485.68 384.624 486.128 386.096C486.64 387.504 487.376 388.688 488.336 389.648C489.296 390.544 490.608 391.088 492.272 391.28C493.424 391.408 494.576 391.344 495.728 391.088C496.944 390.832 498.032 390.48 498.992 390.032C499.248 389.968 499.696 389.776 500.336 389.456C501.04 389.136 501.744 388.88 502.448 388.688L503.792 388.304V359.312C502.896 358.736 502.128 358.032 501.488 357.2C500.848 356.368 500.4 355.408 500.144 354.32C500.08 354.064 500.048 353.744 500.048 353.36C500.048 352.912 500.08 352.496 500.144 352.112C500.208 351.728 500.304 351.408 500.432 351.152C500.624 350.832 500.88 350.672 501.2 350.672C501.52 350.672 501.904 350.736 502.352 350.864C502.8 350.992 503.216 351.12 503.6 351.248C504.496 351.568 505.616 352.048 506.96 352.688C508.368 353.328 509.488 353.936 510.32 354.512C510.896 354.96 511.312 355.504 511.568 356.144C511.888 356.72 512.048 357.488 512.048 358.448V391.184C512.048 392.016 512.144 392.88 512.336 393.776C512.592 394.608 512.88 395.344 513.2 395.984C513.584 396.88 513.904 397.68 514.16 398.384C514.48 399.152 514.448 399.696 514.064 400.016C513.872 400.208 513.552 400.304 513.104 400.304C512.656 400.304 512.144 400.24 511.568 400.112C510.992 400.048 510.416 399.92 509.84 399.728C509.328 399.6 508.88 399.44 508.496 399.248C506.896 398.416 505.68 397.328 504.848 395.984C504.72 395.728 504.592 395.504 504.464 395.312C504.4 395.056 504.304 394.8 504.176 394.544L502.928 395.696C501.584 396.976 499.888 398.064 497.84 398.96C495.856 399.92 493.712 400.4 491.408 400.4C486.992 400.4 483.44 398.8 480.752 395.6C478.064 392.336 476.656 387.248 476.528 380.336C476.528 378.928 476.56 377.36 476.624 375.632C476.688 373.904 476.688 372.144 476.624 370.352C476.624 368.56 476.528 366.8 476.336 365.072C476.208 363.28 475.92 361.648 475.472 360.176C475.344 359.792 475.152 359.376 474.896 358.928C474.704 358.416 474.512 357.936 474.32 357.488C474.192 357.04 474.128 356.624 474.128 356.24C474.128 355.792 474.288 355.44 474.608 355.184C474.864 354.992 475.248 354.928 475.76 354.992C476.272 354.992 476.816 355.088 477.392 355.28C477.968 355.408 478.512 355.568 479.024 355.76C479.6 355.952 480.016 356.144 480.272 356.336C481.296 356.976 482.128 357.808 482.768 358.832C483.408 359.792 483.888 360.88 484.208 362.096C484.592 363.312 484.848 364.624 484.976 366.032C485.104 367.44 485.168 368.848 485.168 370.256V375.44Z" fill="#01648E"/>
</svg>
