<svg width="720" height="720" viewBox="0 0 720 720" fill="none" xmlns="http://www.w3.org/2000/svg">
<circle cx="360" cy="360" r="300" fill="#F2EFEF" fill-opacity="0.62"/>
<g filter="url(#filter0_i)">
<circle cx="360" cy="360" r="225" fill="#3496DC"/>
</g>
<g filter="url(#filter1_f)">
<circle cx="301" cy="267" r="80" fill="#2A8CD3"/>
</g>
<g filter="url(#filter2_df)">
<circle cx="291" cy="251" r="40" fill="white"/>
</g>
<path d="M276.368 408.224C277.488 397.36 278.384 385.544 279.056 372.776C279.728 359.896 279.952 347.016 279.728 334.136C277.936 336.824 276.144 339.288 274.352 341.528C272.672 343.768 271.16 345.448 269.816 346.568C269.256 347.128 268.36 347.52 267.128 347.744C266.008 347.856 264.776 347.912 263.432 347.912C262.088 347.8 260.8 347.632 259.568 347.408C258.448 347.072 257.664 346.624 257.216 346.064C256.768 345.616 256.656 345.112 256.88 344.552C257.104 343.88 257.496 343.208 258.056 342.536C258.616 341.864 259.232 341.248 259.904 340.688C260.576 340.016 261.136 339.4 261.584 338.84C263.04 337.16 264.552 335.144 266.12 332.792C267.688 330.44 269.144 328.032 270.488 325.568C271.832 322.992 272.952 320.472 273.848 318.008C274.856 315.432 275.416 313.192 275.528 311.288C275.304 309.496 275.528 308.152 276.2 307.256C276.76 306.248 277.936 305.8 279.728 305.912C281.52 305.912 282.976 306.192 284.096 306.752C288.24 308.656 291.208 311.512 293 315.32C294.904 319.016 295.912 323.104 296.024 327.584C296.136 332.736 296.136 338.672 296.024 345.392C295.912 352.112 295.688 359.056 295.352 366.224C295.016 373.392 294.568 380.504 294.008 387.56C293.448 394.616 292.72 401.056 291.824 406.88C291.488 409.12 290.984 411.08 290.312 412.76C295.912 412.424 300.056 411.528 302.744 410.072C303.864 409.624 304.928 409.904 305.936 410.912C307.056 411.92 307.896 413.152 308.456 414.608C309.128 416.064 309.464 417.576 309.464 419.144C309.464 420.6 309.016 421.608 308.12 422.168C307.448 422.728 306.664 423.176 305.768 423.512C304.984 423.848 304.2 424.128 303.416 424.352C301.288 424.912 298.208 425.304 294.176 425.528C290.256 425.752 286.168 425.752 281.912 425.528C277.656 425.416 273.624 425.08 269.816 424.52C266.12 424.072 263.376 423.4 261.584 422.504C260.912 422.168 260.184 421.496 259.4 420.488C258.616 419.48 257.888 418.416 257.216 417.296C256.656 416.176 256.208 415.056 255.872 413.936C255.648 412.816 255.648 411.92 255.872 411.248C256.096 410.576 256.488 410.24 257.048 410.24C257.72 410.128 258.448 410.184 259.232 410.408C260.128 410.52 261.024 410.744 261.92 411.08C262.816 411.304 263.6 411.472 264.272 411.584C267.296 412.256 271.16 412.704 275.864 412.928L276.368 408.224ZM355.856 353.792C355.856 351.888 355.8 350.096 355.688 348.416C355.688 346.624 355.632 344.832 355.52 343.04C355.52 341.136 355.408 339.176 355.184 337.16C355.072 335.032 354.96 332.68 354.848 330.104C354.736 328.648 354.624 327.192 354.512 325.736C354.4 324.28 354.4 322.992 354.512 321.872C354.624 320.64 354.904 319.632 355.352 318.848C355.912 317.952 356.696 317.392 357.704 317.168C359.272 316.832 360.84 317.168 362.408 318.176C363.976 319.184 365.376 320.528 366.608 322.208C367.952 323.888 369.016 325.736 369.8 327.752C370.696 329.768 371.256 331.672 371.48 333.464C371.928 337.384 372.152 340.912 372.152 344.048C372.152 347.072 372.152 350.04 372.152 352.952C376.856 352.728 380.72 352.672 383.744 352.784C386.768 352.784 389.568 352.784 392.144 352.784C394.16 352.784 396.064 353.064 397.856 353.624C399.648 354.072 401.216 354.744 402.56 355.64C403.904 356.536 404.968 357.544 405.752 358.664C406.648 359.784 407.096 360.904 407.096 362.024C407.096 363.144 406.592 364.04 405.584 364.712C404.688 365.272 403.568 365.72 402.224 366.056C400.88 366.392 399.48 366.616 398.024 366.728C396.568 366.728 395.336 366.728 394.328 366.728C390.968 366.84 387.496 366.784 383.912 366.56C380.44 366.336 376.744 366.224 372.824 366.224C372.824 370.032 372.768 374.176 372.656 378.656C372.656 383.024 372.432 387.056 371.984 390.752C371.76 392.32 371.312 394.224 370.64 396.464C369.968 398.592 369.072 400.72 367.952 402.848C366.944 404.864 365.768 406.6 364.424 408.056C363.08 409.512 361.68 410.24 360.224 410.24C359.216 410.24 358.432 409.624 357.872 408.392C357.424 407.16 357.088 405.704 356.864 404.024C356.752 402.232 356.696 400.44 356.696 398.648C356.808 396.856 356.864 395.4 356.864 394.28C356.864 392.712 356.864 390.808 356.864 388.568C356.864 386.328 356.864 383.976 356.864 381.512C356.864 378.936 356.864 376.416 356.864 373.952C356.864 371.376 356.864 369.08 356.864 367.064C353.392 367.176 350.032 367.4 346.784 367.736C343.648 368.072 340.456 368.24 337.208 368.24C335.08 368.24 332.896 368.184 330.656 368.072C328.528 367.96 326.512 367.736 324.608 367.4C322.816 367.064 321.304 366.56 320.072 365.888C318.952 365.216 318.392 364.264 318.392 363.032C318.392 362.92 318.504 362.584 318.728 362.024C319.064 361.464 319.568 360.904 320.24 360.344C321.024 359.672 322.144 359 323.6 358.328C325.056 357.656 326.96 357.152 329.312 356.816C334.128 356.032 338.608 355.472 342.752 355.136C347.008 354.688 351.376 354.24 355.856 353.792ZM439.118 408.224C440.238 397.36 441.134 385.544 441.806 372.776C442.478 359.896 442.702 347.016 442.478 334.136C440.686 336.824 438.894 339.288 437.102 341.528C435.422 343.768 433.91 345.448 432.566 346.568C432.006 347.128 431.11 347.52 429.878 347.744C428.758 347.856 427.526 347.912 426.182 347.912C424.838 347.8 423.55 347.632 422.318 347.408C421.198 347.072 420.414 346.624 419.966 346.064C419.518 345.616 419.406 345.112 419.63 344.552C419.854 343.88 420.246 343.208 420.806 342.536C421.366 341.864 421.982 341.248 422.654 340.688C423.326 340.016 423.886 339.4 424.334 338.84C425.79 337.16 427.302 335.144 428.87 332.792C430.438 330.44 431.894 328.032 433.238 325.568C434.582 322.992 435.702 320.472 436.598 318.008C437.606 315.432 438.166 313.192 438.278 311.288C438.054 309.496 438.278 308.152 438.95 307.256C439.51 306.248 440.686 305.8 442.478 305.912C444.27 305.912 445.726 306.192 446.846 306.752C450.99 308.656 453.958 311.512 455.75 315.32C457.654 319.016 458.662 323.104 458.774 327.584C458.886 332.736 458.886 338.672 458.774 345.392C458.662 352.112 458.438 359.056 458.102 366.224C457.766 373.392 457.318 380.504 456.758 387.56C456.198 394.616 455.47 401.056 454.574 406.88C454.238 409.12 453.734 411.08 453.062 412.76C458.662 412.424 462.806 411.528 465.494 410.072C466.614 409.624 467.678 409.904 468.686 410.912C469.806 411.92 470.646 413.152 471.206 414.608C471.878 416.064 472.214 417.576 472.214 419.144C472.214 420.6 471.766 421.608 470.87 422.168C470.198 422.728 469.414 423.176 468.518 423.512C467.734 423.848 466.95 424.128 466.166 424.352C464.038 424.912 460.958 425.304 456.926 425.528C453.006 425.752 448.918 425.752 444.662 425.528C440.406 425.416 436.374 425.08 432.566 424.52C428.87 424.072 426.126 423.4 424.334 422.504C423.662 422.168 422.934 421.496 422.15 420.488C421.366 419.48 420.638 418.416 419.966 417.296C419.406 416.176 418.958 415.056 418.622 413.936C418.398 412.816 418.398 411.92 418.622 411.248C418.846 410.576 419.238 410.24 419.798 410.24C420.47 410.128 421.198 410.184 421.982 410.408C422.878 410.52 423.774 410.744 424.67 411.08C425.566 411.304 426.35 411.472 427.022 411.584C430.046 412.256 433.91 412.704 438.614 412.928L439.118 408.224Z" fill="black"/>
<defs>
<filter id="filter0_i" x="135" y="135" width="459" height="459" filterUnits="userSpaceOnUse" color-interpolation-filters="sRGB">
<feFlood flood-opacity="0" result="BackgroundImageFix"/>
<feBlend mode="normal" in="SourceGraphic" in2="BackgroundImageFix" result="shape"/>
<feColorMatrix in="SourceAlpha" type="matrix" values="0 0 0 0 0 0 0 0 0 0 0 0 0 0 0 0 0 0 127 0" result="hardAlpha"/>
<feOffset dx="10" dy="10"/>
<feGaussianBlur stdDeviation="4.5"/>
<feComposite in2="hardAlpha" operator="arithmetic" k2="-1" k3="1"/>
<feColorMatrix type="matrix" values="0 0 0 0 0.30875 0 0 0 0 0.603725 0 0 0 0 0.95 0 0 0 1 0"/>
<feBlend mode="lighten" in2="shape" result="effect1_innerShadow"/>
</filter>
<filter id="filter1_f" x="216" y="182" width="170" height="170" filterUnits="userSpaceOnUse" color-interpolation-filters="sRGB">
<feFlood flood-opacity="0" result="BackgroundImageFix"/>
<feBlend mode="normal" in="SourceGraphic" in2="BackgroundImageFix" result="shape"/>
<feGaussianBlur stdDeviation="2.5" result="effect1_foregroundBlur"/>
</filter>
<filter id="filter2_df" x="241" y="201" width="100" height="100" filterUnits="userSpaceOnUse" color-interpolation-filters="sRGB">
<feFlood flood-opacity="0" result="BackgroundImageFix"/>
<feColorMatrix in="SourceAlpha" type="matrix" values="0 0 0 0 0 0 0 0 0 0 0 0 0 0 0 0 0 0 127 0"/>
<feOffset dy="4"/>
<feGaussianBlur stdDeviation="2"/>
<feColorMatrix type="matrix" values="0 0 0 0 1 0 0 0 0 1 0 0 0 0 1 0 0 0 0.25 0"/>
<feBlend mode="normal" in2="BackgroundImageFix" result="effect1_dropShadow"/>
<feBlend mode="normal" in="SourceGraphic" in2="effect1_dropShadow" result="shape"/>
<feGaussianBlur stdDeviation="5" result="effect2_foregroundBlur"/>
</filter>
</defs>
</svg>
