<svg width="720" height="720" viewBox="0 0 720 720" fill="none" xmlns="http://www.w3.org/2000/svg">
<circle cx="360" cy="360" r="300" fill="#F2EFEF" fill-opacity="0.62"/>
<g filter="url(#filter0_i)">
<circle cx="360" cy="360" r="225" fill="#3496DC"/>
</g>
<g filter="url(#filter1_f)">
<circle cx="301" cy="267" r="80" fill="#2A8CD3"/>
</g>
<g filter="url(#filter2_df)">
<circle cx="291" cy="251" r="40" fill="white"/>
</g>
<path d="M234.305 302.152C234.305 299.72 234.241 297.352 234.113 295.048C234.049 292.68 233.953 290.152 233.825 287.464C233.313 287.016 232.705 286.344 232.001 285.448C231.361 284.552 230.753 283.624 230.177 282.664C229.665 281.704 229.281 280.808 229.025 279.976C228.833 279.144 228.929 278.504 229.313 278.056C229.825 277.48 230.753 277.32 232.097 277.576C233.441 277.832 234.817 278.312 236.225 279.016C237.697 279.72 239.009 280.584 240.161 281.608C241.313 282.632 241.985 283.624 242.177 284.584C242.561 286.504 242.817 288.936 242.945 291.88C243.073 294.824 243.041 298.12 242.849 301.768C243.873 301.384 245.313 301 247.169 300.616C249.089 300.232 251.105 299.944 253.217 299.752C255.393 299.496 257.537 299.336 259.649 299.272C261.761 299.208 263.553 299.304 265.025 299.56V291.592C265.025 288.648 264.929 286.12 264.737 284.008C264.545 281.896 264.097 279.656 263.393 277.288C263.329 277.096 263.393 276.84 263.585 276.52C263.777 276.136 264.033 275.816 264.353 275.56C264.673 275.24 264.993 274.984 265.313 274.792C265.697 274.536 266.017 274.408 266.273 274.408C267.297 274.408 268.289 274.952 269.249 276.04C270.273 277.064 271.169 278.408 271.937 280.072C272.705 281.672 273.313 283.432 273.761 285.352C274.273 287.208 274.497 289 274.433 290.728C274.177 296.36 274.017 301.768 273.953 306.952C273.889 312.072 273.793 317.256 273.665 322.504C273.601 324.04 273.409 325.768 273.089 327.688C272.833 329.608 272.449 331.432 271.937 333.16C271.489 334.824 270.945 336.232 270.305 337.384C269.665 338.536 268.929 339.112 268.097 339.112C267.585 339.112 267.169 338.536 266.849 337.384C266.593 336.296 266.369 334.952 266.177 333.352C266.049 331.688 265.953 329.992 265.889 328.264C265.825 326.472 265.761 324.904 265.697 323.56C265.569 321.512 265.473 319.176 265.409 316.552C265.409 313.928 265.377 310.76 265.313 307.048C264.161 307.112 262.689 307.208 260.897 307.336C259.105 307.4 257.185 307.464 255.137 307.528C253.089 307.592 250.977 307.624 248.801 307.624C246.689 307.56 244.705 307.432 242.849 307.24C242.849 308.456 242.817 309.768 242.753 311.176C242.689 312.584 242.625 313.992 242.561 315.4C242.561 316.808 242.529 318.152 242.465 319.432C242.401 320.648 242.337 321.672 242.273 322.504C242.145 324.104 241.825 325.864 241.313 327.784C240.801 329.64 240.193 331.368 239.489 332.968C238.849 334.568 238.145 335.912 237.377 337C236.673 338.024 236.001 338.536 235.361 338.536C235.233 338.536 235.009 338.408 234.689 338.152C234.433 337.96 234.177 337.704 233.921 337.384C233.729 337.128 233.537 336.84 233.345 336.52C233.153 336.136 233.089 335.784 233.153 335.464C233.665 333.16 233.985 330.376 234.113 327.112C234.241 323.784 234.305 320.168 234.305 316.264V302.152ZM346.249 277.576L346.921 278.632C346.409 281.64 345.577 284.488 344.425 287.176C343.273 289.864 341.545 292.104 339.241 293.896C337.001 295.688 333.961 296.808 330.121 297.256V337H323.209L321.961 330.184H321.577C319.913 332.872 317.609 334.856 314.665 336.136C311.785 337.352 308.713 337.96 305.449 337.96C299.177 337.96 294.441 336.488 291.241 333.544C288.105 330.536 286.537 325.768 286.537 319.24V285.64H295.081V318.664C295.081 326.856 298.889 330.952 306.505 330.952C312.201 330.952 316.137 329.352 318.313 326.152C320.553 322.952 321.673 318.344 321.673 312.328V285.64H330.121V291.304C333.193 290.792 335.145 289.32 335.977 286.888C336.873 284.392 337.321 281.288 337.321 277.576H346.249ZM396.537 311.176C396.537 319.688 394.361 326.28 390.009 330.952C385.721 335.624 379.897 337.96 372.537 337.96C367.993 337.96 363.929 336.936 360.345 334.888C356.825 332.776 354.041 329.736 351.993 325.768C349.945 321.736 348.921 316.872 348.921 311.176C348.921 302.664 351.065 296.104 355.353 291.496C359.641 286.888 365.465 284.584 372.825 284.584C376.217 284.584 379.321 285.16 382.137 286.312C385.017 287.464 387.481 289.096 389.529 291.208C392.409 290.312 394.201 288.648 394.905 286.216C395.609 283.72 395.961 280.872 395.961 277.672H404.985L405.657 278.728C404.825 283.144 403.481 286.856 401.625 289.864C399.769 292.808 396.985 294.952 393.273 296.296C394.297 298.28 395.097 300.52 395.673 303.016C396.249 305.512 396.537 308.232 396.537 311.176ZM357.657 311.176C357.657 317.64 358.841 322.568 361.209 325.96C363.641 329.288 367.481 330.952 372.729 330.952C378.041 330.952 381.881 329.288 384.249 325.96C386.617 322.568 387.801 317.64 387.801 311.176C387.801 304.712 386.585 299.848 384.153 296.584C381.785 293.32 377.945 291.688 372.633 291.688C367.385 291.688 363.577 293.32 361.209 296.584C358.841 299.848 357.657 304.712 357.657 311.176ZM386.265 263.464V264.424C385.497 265.576 384.313 267.08 382.713 268.936C381.113 270.728 379.385 272.552 377.529 274.408C375.737 276.2 374.073 277.672 372.537 278.824H366.969V277.672C367.929 276.456 368.953 275.016 370.041 273.352C371.193 271.688 372.313 269.992 373.401 268.264C374.489 266.472 375.385 264.872 376.089 263.464H386.265ZM417.389 302.632C417.773 302.056 418.317 301.512 419.021 301C419.789 300.488 420.589 300.04 421.421 299.656C422.317 299.272 423.245 298.984 424.205 298.792C425.165 298.536 426.029 298.408 426.797 298.408C431.981 298.408 435.885 300.104 438.509 303.496C441.197 306.888 442.541 312.072 442.541 319.048C442.541 320.648 442.445 322.28 442.253 323.944C442.125 325.608 442.029 327.304 441.965 329.032C441.965 330.76 442.029 332.456 442.157 334.12C442.349 335.784 442.765 337.416 443.405 339.016C443.597 339.4 443.789 339.816 443.981 340.264C444.237 340.776 444.461 341.256 444.653 341.704C444.845 342.216 444.941 342.664 444.941 343.048C444.941 343.432 444.781 343.752 444.461 344.008C444.205 344.2 443.821 344.264 443.309 344.2C442.797 344.2 442.253 344.104 441.677 343.912C441.101 343.784 440.525 343.624 439.949 343.432C439.437 343.24 439.053 343.048 438.797 342.856C437.645 342.088 436.717 341 436.013 339.592C435.373 338.184 434.893 336.616 434.573 334.888C434.253 333.096 434.061 331.272 433.997 329.416C433.933 327.496 433.901 325.672 433.901 323.944C433.901 321.96 433.805 320.04 433.613 318.184C433.421 316.264 433.037 314.568 432.461 313.096C431.885 311.56 431.053 310.312 429.965 309.352C428.941 308.328 427.597 307.72 425.933 307.528C424.717 307.4 423.309 307.496 421.709 307.816C420.173 308.072 418.829 308.872 417.677 310.216C417.677 313.672 417.645 317.16 417.581 320.68C417.517 324.136 417.421 327.688 417.293 331.336C417.229 333.192 416.973 334.92 416.525 336.52C416.077 338.056 415.501 339.4 414.797 340.552C414.157 341.768 413.421 342.696 412.589 343.336C411.821 344.04 411.021 344.392 410.189 344.392C409.677 344.392 409.357 343.752 409.229 342.472C409.101 341.192 409.037 339.688 409.037 337.96C409.101 336.296 409.165 334.6 409.229 332.872C409.357 331.144 409.421 329.8 409.421 328.84C409.421 325 409.453 321 409.517 316.84C409.645 312.616 409.549 308.104 409.229 303.304C408.333 302.728 407.501 302.024 406.733 301.192C406.029 300.36 405.549 299.4 405.293 298.312C405.229 298.056 405.197 297.736 405.197 297.352C405.197 296.904 405.229 296.488 405.293 296.104C405.357 295.72 405.453 295.4 405.581 295.144C405.773 294.824 406.029 294.664 406.349 294.664C406.669 294.664 407.053 294.728 407.501 294.856C407.949 294.984 408.365 295.112 408.749 295.24C409.197 295.432 409.741 295.656 410.381 295.912C411.021 296.168 411.661 296.456 412.301 296.776C412.941 297.032 413.549 297.32 414.125 297.64C414.765 297.96 415.277 298.248 415.661 298.504C416.237 298.952 416.653 299.496 416.909 300.136C417.229 300.712 417.389 301.48 417.389 302.44V302.632ZM459.902 336.904C457.982 336.52 456.478 336.008 455.39 335.368C454.366 334.664 453.598 333.96 453.086 333.256C452.638 332.488 452.382 331.816 452.318 331.24C452.254 330.6 452.222 330.152 452.222 329.896C452.222 329 452.446 328.104 452.894 327.208C453.406 326.248 453.982 325.352 454.622 324.52C455.326 323.688 456.062 322.952 456.83 322.312C457.662 321.672 458.43 321.192 459.134 320.872C457.15 319.528 455.518 317.896 454.238 315.976C453.022 314.056 452.414 312.168 452.414 310.312C452.414 308.904 452.702 307.336 453.278 305.608C453.918 303.88 454.91 302.28 456.254 300.808C457.662 299.336 459.486 298.088 461.726 297.064C464.03 296.04 466.878 295.496 470.27 295.432C471.486 295.432 472.67 295.656 473.822 296.104C475.038 296.488 476.19 297.032 477.278 297.736C478.046 296.2 479.23 294.856 480.83 293.704C482.43 292.552 484.254 291.72 486.302 291.208C486.686 291.08 487.326 290.984 488.222 290.92C489.118 290.792 489.694 290.856 489.95 291.112C490.206 291.368 490.334 291.816 490.334 292.456C490.398 293.032 490.398 293.64 490.334 294.28C490.27 294.92 490.142 295.528 489.95 296.104C489.822 296.616 489.694 296.936 489.566 297.064C489.246 297.384 488.734 297.768 488.03 298.216C487.326 298.6 486.558 298.984 485.726 299.368C484.894 299.752 484.062 300.104 483.23 300.424C482.398 300.744 481.662 301 481.022 301.192C482.11 302.344 482.878 303.72 483.326 305.32C483.774 306.92 483.934 308.52 483.806 310.12C483.678 312.04 483.198 313.832 482.366 315.496C481.534 317.16 480.414 318.6 479.006 319.816C477.598 321.032 475.934 321.992 474.014 322.696C472.094 323.336 469.982 323.624 467.678 323.56C466.91 323.56 466.43 323.528 466.238 323.464C465.342 323.464 464.446 323.688 463.55 324.136C462.718 324.52 461.95 325 461.246 325.576C460.606 326.152 460.062 326.76 459.614 327.4C459.23 327.976 459.038 328.424 459.038 328.744C459.102 329.448 459.55 329.992 460.382 330.376C461.278 330.76 462.27 331.016 463.358 331.144L476.894 332.968C479.774 333.352 482.11 334.056 483.902 335.08C485.758 336.04 487.198 337.128 488.222 338.344C489.31 339.624 490.046 340.936 490.43 342.28C490.814 343.624 491.006 344.872 491.006 346.024C490.942 348.328 490.494 350.472 489.662 352.456C488.83 354.44 487.55 356.136 485.822 357.544C484.158 359.016 482.014 360.136 479.39 360.904C476.766 361.736 473.63 362.152 469.982 362.152C466.334 362.152 463.294 361.704 460.862 360.808C458.43 359.912 456.478 358.792 455.006 357.448C453.534 356.168 452.478 354.792 451.838 353.32C451.262 351.848 450.974 350.504 450.974 349.288C450.91 347.944 451.198 346.504 451.838 344.968C452.542 343.432 453.246 342.184 453.95 341.224C454.526 340.456 455.134 339.816 455.774 339.304C456.414 338.792 456.99 338.664 457.502 338.92C458.014 339.176 458.174 339.656 457.982 340.36C457.79 341.064 457.63 341.928 457.502 342.952C457.374 343.72 457.278 344.456 457.214 345.16C457.214 345.864 457.374 346.76 457.694 347.848C457.758 348.04 457.918 348.456 458.174 349.096C458.494 349.8 459.07 350.504 459.902 351.208C460.734 351.912 461.95 352.52 463.55 353.032C465.15 353.608 467.294 353.896 469.982 353.896C473.054 353.896 475.454 353.608 477.182 353.032C478.974 352.456 480.318 351.752 481.214 350.92C482.174 350.088 482.75 349.224 482.942 348.328C483.198 347.432 483.326 346.664 483.326 346.024C483.326 345.064 482.75 344.008 481.598 342.856C480.446 341.704 478.174 340.776 474.782 340.072L459.902 336.904ZM466.814 317.896C469.566 317.64 471.774 316.744 473.438 315.208C475.166 313.608 476.03 311.848 476.03 309.928C476.03 307.816 475.23 306.152 473.63 304.936C472.094 303.656 470.078 303.016 467.582 303.016C466.686 303.016 465.758 303.112 464.798 303.304C463.838 303.432 462.942 303.72 462.11 304.168C461.342 304.616 460.67 305.256 460.094 306.088C459.582 306.92 459.294 307.976 459.23 309.256C459.166 310.152 459.358 310.888 459.806 311.464C460.318 311.976 460.926 312.52 461.63 313.096C463.038 313.992 464.222 314.824 465.182 315.592C466.142 316.296 466.686 317.064 466.814 317.896ZM319.709 401.32C319.709 400.872 319.645 400.616 319.517 400.552C319.453 400.424 319.261 400.328 318.941 400.264C317.661 400.072 316.413 399.688 315.197 399.112C314.493 398.792 313.885 398.344 313.373 397.768C312.861 397.128 312.605 396.648 312.605 396.328C312.605 395.88 312.957 395.464 313.661 395.08C314.365 394.632 314.941 394.344 315.389 394.216C316.029 393.96 316.765 393.736 317.597 393.544C318.493 393.352 319.389 393.192 320.285 393.064C321.181 392.936 322.045 392.84 322.877 392.776C323.709 392.712 324.413 392.68 324.989 392.68C325.373 392.68 325.757 392.84 326.141 393.16C326.525 393.48 326.877 393.864 327.197 394.312C327.517 394.696 327.773 395.112 327.965 395.56C328.157 396.008 328.253 396.36 328.253 396.616V450.28C328.253 451.24 328.285 452.392 328.349 453.736C328.477 455.016 328.701 456.008 329.021 456.712C329.405 457.352 329.821 457.864 330.269 458.248C330.717 458.696 331.133 459.048 331.517 459.304C331.901 459.624 332.221 459.88 332.477 460.072C332.797 460.264 332.957 460.456 332.957 460.648C333.021 461.224 332.701 461.608 331.997 461.8C331.357 461.992 330.589 462.088 329.693 462.088C328.861 462.088 327.997 462.024 327.101 461.896C326.269 461.768 325.725 461.64 325.469 461.512C324.765 461.192 324.061 460.744 323.357 460.168C322.717 459.656 322.109 458.856 321.533 457.768C321.021 456.744 320.573 455.368 320.189 453.64C319.869 451.912 319.709 449.704 319.709 447.016V426.568C318.749 425.864 317.469 425.16 315.869 424.456C314.333 423.752 312.669 423.464 310.877 423.592C309.597 423.656 308.221 423.88 306.749 424.264C305.341 424.648 303.997 425.384 302.717 426.472C301.501 427.56 300.477 429.096 299.645 431.08C298.877 433 298.525 435.56 298.589 438.76C298.589 441 298.749 443.24 299.069 445.48C299.389 447.656 299.997 449.544 300.893 451.144C301.853 452.68 303.133 453.8 304.733 454.504C306.333 455.208 308.445 455.176 311.069 454.408C311.581 454.28 312.189 454.088 312.893 453.832C313.661 453.576 314.397 453.32 315.101 453.064C315.805 452.808 316.445 452.616 317.021 452.488C317.661 452.296 318.109 452.264 318.365 452.392C318.813 452.584 318.813 453.16 318.365 454.12C317.917 455.08 317.181 456.072 316.157 457.096C315.133 458.12 313.917 459.048 312.509 459.88C311.101 460.712 309.629 461.128 308.093 461.128C305.597 461.128 303.197 460.68 300.893 459.784C298.653 458.952 296.669 457.64 294.941 455.848C293.213 454.056 291.837 451.816 290.813 449.128C289.789 446.376 289.277 443.112 289.277 439.336C289.277 436.136 289.757 433.064 290.717 430.12C291.677 427.176 293.053 424.584 294.845 422.344C296.637 420.104 298.813 418.312 301.373 416.968C303.997 415.624 306.973 414.952 310.301 414.952C311.901 414.952 313.597 415.336 315.389 416.104C317.181 416.808 318.621 417.832 319.709 419.176V401.32ZM362.429 404.68C368.701 404.68 373.341 406.056 376.349 408.808C379.357 411.56 380.861 415.944 380.861 421.96V457H374.717L373.085 449.704H372.701C370.461 452.52 368.093 454.6 365.597 455.944C363.165 457.288 359.773 457.96 355.421 457.96C350.749 457.96 346.877 456.744 343.805 454.312C340.733 451.816 339.197 447.944 339.197 442.696C339.197 437.576 341.213 433.64 345.245 430.888C349.277 428.072 355.485 426.536 363.869 426.28L372.605 425.992V422.92C372.605 418.632 371.677 415.656 369.821 413.992C367.965 412.328 365.341 411.496 361.949 411.496C359.261 411.496 356.701 411.912 354.269 412.744C351.837 413.512 349.565 414.408 347.453 415.432L344.861 409.096C347.101 407.88 349.757 406.856 352.829 406.024C355.901 405.128 359.101 404.68 362.429 404.68ZM372.509 431.848L364.925 432.136C358.525 432.392 354.077 433.416 351.581 435.208C349.149 437 347.933 439.528 347.933 442.792C347.933 445.672 348.797 447.784 350.525 449.128C352.317 450.472 354.589 451.144 357.341 451.144C361.693 451.144 365.309 449.96 368.189 447.592C371.069 445.16 372.509 441.448 372.509 436.456V431.848ZM376.733 372.232C376.477 375.176 375.581 377.64 374.045 379.624C372.573 381.608 370.525 382.6 367.901 382.6C366.429 382.6 364.957 382.248 363.485 381.544C362.013 380.776 360.605 380.04 359.261 379.336C357.917 378.568 356.637 378.184 355.421 378.184C354.205 378.184 353.245 378.568 352.541 379.336C351.901 380.04 351.357 381.16 350.909 382.696H346.589C346.909 379.688 347.805 377.224 349.277 375.304C350.813 373.32 352.861 372.328 355.421 372.328C357.021 372.328 358.557 372.712 360.029 373.48C361.501 374.184 362.909 374.92 364.253 375.688C365.661 376.392 366.909 376.744 367.997 376.744C369.277 376.744 370.237 376.392 370.877 375.688C371.517 374.92 372.029 373.768 372.413 372.232H376.733ZM365.885 385.576C367.357 387.752 369.021 389.864 370.877 391.912C372.797 393.96 374.557 395.912 376.157 397.768V398.824H371.549C368.285 396.712 364.957 394.152 361.565 391.144C359.965 392.616 358.301 393.992 356.573 395.272C354.845 396.552 353.181 397.736 351.581 398.824H346.973V397.768C348.573 395.912 350.301 393.96 352.157 391.912C354.077 389.864 355.773 387.752 357.245 385.576H365.885ZM403.186 422.632C403.57 422.056 404.114 421.512 404.818 421C405.586 420.488 406.386 420.04 407.218 419.656C408.114 419.272 409.042 418.984 410.002 418.792C410.962 418.536 411.826 418.408 412.594 418.408C417.778 418.408 421.682 420.104 424.306 423.496C426.994 426.888 428.338 432.072 428.338 439.048C428.338 440.648 428.242 442.28 428.05 443.944C427.922 445.608 427.826 447.304 427.762 449.032C427.762 450.76 427.826 452.456 427.954 454.12C428.146 455.784 428.562 457.416 429.202 459.016C429.394 459.4 429.586 459.816 429.778 460.264C430.034 460.776 430.258 461.256 430.45 461.704C430.642 462.216 430.738 462.664 430.738 463.048C430.738 463.432 430.578 463.752 430.258 464.008C430.002 464.2 429.618 464.264 429.106 464.2C428.594 464.2 428.05 464.104 427.474 463.912C426.898 463.784 426.322 463.624 425.746 463.432C425.234 463.24 424.85 463.048 424.594 462.856C423.442 462.088 422.514 461 421.81 459.592C421.17 458.184 420.69 456.616 420.37 454.888C420.05 453.096 419.858 451.272 419.794 449.416C419.73 447.496 419.698 445.672 419.698 443.944C419.698 441.96 419.602 440.04 419.41 438.184C419.218 436.264 418.834 434.568 418.258 433.096C417.682 431.56 416.85 430.312 415.762 429.352C414.738 428.328 413.394 427.72 411.73 427.528C410.514 427.4 409.106 427.496 407.506 427.816C405.97 428.072 404.626 428.872 403.474 430.216C403.474 433.672 403.442 437.16 403.378 440.68C403.314 444.136 403.218 447.688 403.09 451.336C403.026 453.192 402.77 454.92 402.322 456.52C401.874 458.056 401.298 459.4 400.594 460.552C399.954 461.768 399.218 462.696 398.386 463.336C397.618 464.04 396.818 464.392 395.986 464.392C395.474 464.392 395.154 463.752 395.026 462.472C394.898 461.192 394.834 459.688 394.834 457.96C394.898 456.296 394.962 454.6 395.026 452.872C395.154 451.144 395.218 449.8 395.218 448.84C395.218 445 395.25 441 395.314 436.84C395.442 432.616 395.346 428.104 395.026 423.304C394.13 422.728 393.298 422.024 392.53 421.192C391.826 420.36 391.346 419.4 391.09 418.312C391.026 418.056 390.994 417.736 390.994 417.352C390.994 416.904 391.026 416.488 391.09 416.104C391.154 415.72 391.25 415.4 391.378 415.144C391.57 414.824 391.826 414.664 392.146 414.664C392.466 414.664 392.85 414.728 393.298 414.856C393.746 414.984 394.162 415.112 394.546 415.24C394.994 415.432 395.538 415.656 396.178 415.912C396.818 416.168 397.458 416.456 398.098 416.776C398.738 417.032 399.346 417.32 399.922 417.64C400.562 417.96 401.074 418.248 401.458 418.504C402.034 418.952 402.45 419.496 402.706 420.136C403.026 420.712 403.186 421.48 403.186 422.44V422.632Z" fill="black"/>
<defs>
<filter id="filter0_i" x="135" y="135" width="459" height="459" filterUnits="userSpaceOnUse" color-interpolation-filters="sRGB">
<feFlood flood-opacity="0" result="BackgroundImageFix"/>
<feBlend mode="normal" in="SourceGraphic" in2="BackgroundImageFix" result="shape"/>
<feColorMatrix in="SourceAlpha" type="matrix" values="0 0 0 0 0 0 0 0 0 0 0 0 0 0 0 0 0 0 127 0" result="hardAlpha"/>
<feOffset dx="10" dy="10"/>
<feGaussianBlur stdDeviation="4.5"/>
<feComposite in2="hardAlpha" operator="arithmetic" k2="-1" k3="1"/>
<feColorMatrix type="matrix" values="0 0 0 0 0.30875 0 0 0 0 0.603725 0 0 0 0 0.95 0 0 0 1 0"/>
<feBlend mode="lighten" in2="shape" result="effect1_innerShadow"/>
</filter>
<filter id="filter1_f" x="216" y="182" width="170" height="170" filterUnits="userSpaceOnUse" color-interpolation-filters="sRGB">
<feFlood flood-opacity="0" result="BackgroundImageFix"/>
<feBlend mode="normal" in="SourceGraphic" in2="BackgroundImageFix" result="shape"/>
<feGaussianBlur stdDeviation="2.5" result="effect1_foregroundBlur"/>
</filter>
<filter id="filter2_df" x="241" y="201" width="100" height="100" filterUnits="userSpaceOnUse" color-interpolation-filters="sRGB">
<feFlood flood-opacity="0" result="BackgroundImageFix"/>
<feColorMatrix in="SourceAlpha" type="matrix" values="0 0 0 0 0 0 0 0 0 0 0 0 0 0 0 0 0 0 127 0"/>
<feOffset dy="4"/>
<feGaussianBlur stdDeviation="2"/>
<feColorMatrix type="matrix" values="0 0 0 0 1 0 0 0 0 1 0 0 0 0 1 0 0 0 0.25 0"/>
<feBlend mode="normal" in2="BackgroundImageFix" result="effect1_dropShadow"/>
<feBlend mode="normal" in="SourceGraphic" in2="effect1_dropShadow" result="shape"/>
<feGaussianBlur stdDeviation="5" result="effect2_foregroundBlur"/>
</filter>
</defs>
</svg>
