<svg width="720" height="720" viewBox="0 0 720 720" fill="none" xmlns="http://www.w3.org/2000/svg">
<circle cx="360" cy="360" r="300" fill="#F2EFEF" fill-opacity="0.62"/>
<g filter="url(#filter0_i)">
<circle cx="360" cy="360" r="225" fill="#3496DC"/>
</g>
<g filter="url(#filter1_f)">
<circle cx="301" cy="267" r="80" fill="#2A8CD3"/>
</g>
<g filter="url(#filter2_df)">
<circle cx="291" cy="251" r="40" fill="white"/>
</g>
<path d="M237.32 335.816C235.72 336.328 234.28 337.032 233 337.928C231.784 338.824 230.696 339.816 229.736 340.904C228.776 341.928 227.912 343.016 227.144 344.168C226.44 345.32 225.832 346.376 225.32 347.336C224.808 348.424 224.36 349.704 223.976 351.176C223.592 352.584 223.304 354.056 223.112 355.592C222.92 357.128 222.792 358.632 222.728 360.104C222.664 361.576 222.664 362.888 222.728 364.04C222.856 365.704 223.176 367.592 223.688 369.704C224.2 371.752 224.936 373.736 225.896 375.656C226.92 377.576 228.2 379.272 229.736 380.744C231.336 382.152 233.256 383.048 235.496 383.432C236.84 383.624 238.152 383.688 239.432 383.624C240.776 383.496 241.992 383.304 243.08 383.048C244.232 382.792 245.256 382.504 246.152 382.184C247.112 381.8 247.912 381.448 248.552 381.128C249.256 380.808 250.088 380.392 251.048 379.88C252.072 379.304 253.064 378.824 254.024 378.44C254.984 377.992 255.88 377.704 256.712 377.576C257.544 377.384 258.12 377.512 258.44 377.96C258.824 378.472 258.888 379.144 258.632 379.976C258.44 380.744 258.024 381.608 257.384 382.568C256.744 383.464 255.944 384.36 254.984 385.256C254.088 386.152 253.16 386.952 252.2 387.656C250.408 388.936 248.2 390.024 245.576 390.92C242.952 391.88 240.36 392.392 237.8 392.456C234.28 392.52 230.888 391.976 227.624 390.824C224.36 389.672 221.64 387.88 219.464 385.448C218.184 384.04 217.064 382.248 216.104 380.072C215.144 377.896 214.376 375.56 213.8 373.064C213.224 370.504 212.84 367.88 212.648 365.192C212.456 362.44 212.52 359.816 212.84 357.32C213.224 354.312 213.992 351.176 215.144 347.912C216.296 344.584 217.896 341.544 219.944 338.792C221.992 335.976 224.52 333.608 227.528 331.688C230.536 329.704 234.056 328.52 238.088 328.136C239.816 327.944 241.64 327.976 243.56 328.232C245.544 328.488 247.304 328.872 248.84 329.384C250.44 329.896 251.752 330.472 252.776 331.112C253.8 331.752 254.28 332.328 254.216 332.84C254.088 333.608 253.736 334.216 253.16 334.664C252.584 335.048 251.88 335.336 251.048 335.528C250.28 335.656 249.448 335.72 248.552 335.72C247.72 335.656 246.952 335.56 246.248 335.432C244.648 335.112 243.112 334.984 241.64 335.048C240.232 335.048 238.792 335.304 237.32 335.816ZM288.117 336.68C294.389 336.68 299.029 338.056 302.037 340.808C305.045 343.56 306.549 347.944 306.549 353.96V389H300.405L298.773 381.704H298.389C296.149 384.52 293.781 386.6 291.285 387.944C288.853 389.288 285.461 389.96 281.109 389.96C276.437 389.96 272.565 388.744 269.493 386.312C266.421 383.816 264.885 379.944 264.885 374.696C264.885 369.576 266.901 365.64 270.933 362.888C274.965 360.072 281.173 358.536 289.557 358.28L298.293 357.992V354.92C298.293 350.632 297.365 347.656 295.509 345.992C293.653 344.328 291.029 343.496 287.637 343.496C284.949 343.496 282.389 343.912 279.957 344.744C277.525 345.512 275.253 346.408 273.141 347.432L270.549 341.096C272.789 339.88 275.445 338.856 278.517 338.024C281.589 337.128 284.789 336.68 288.117 336.68ZM298.197 363.848L290.613 364.136C284.213 364.392 279.765 365.416 277.269 367.208C274.837 369 273.621 371.528 273.621 374.792C273.621 377.672 274.485 379.784 276.213 381.128C278.005 382.472 280.277 383.144 283.029 383.144C287.381 383.144 290.997 381.96 293.877 379.592C296.757 377.16 298.197 373.448 298.197 368.456V363.848ZM284.949 315.464C285.653 316.872 286.517 318.472 287.541 320.264C288.629 321.992 289.749 323.688 290.901 325.352C292.117 327.016 293.205 328.456 294.165 329.672V330.824H288.501C287.029 329.672 285.365 328.2 283.509 326.408C281.653 324.552 279.925 322.728 278.325 320.936C276.789 319.08 275.637 317.576 274.869 316.424V315.464H284.949ZM322.633 352.712C322.633 352.328 322.569 352.104 322.441 352.04C322.377 351.912 322.281 351.816 322.153 351.752C321.513 351.56 320.745 351.368 319.849 351.176C318.953 350.92 318.281 350.696 317.833 350.504C317.193 350.184 316.649 349.736 316.201 349.16C315.753 348.52 315.529 347.88 315.529 347.24C315.529 346.792 315.881 346.408 316.585 346.088C317.289 345.704 317.865 345.448 318.313 345.32C319.913 344.808 321.385 344.424 322.729 344.168C324.073 343.912 325.513 343.816 327.049 343.88C327.817 343.88 328.425 344.04 328.873 344.36C329.385 344.68 329.737 345.064 329.929 345.512C330.185 345.896 330.345 346.312 330.409 346.76C330.537 347.144 330.601 347.464 330.601 347.72V377.192C330.601 378.728 330.441 380.424 330.121 382.28C329.801 384.072 329.385 385.768 328.873 387.368C328.425 388.904 327.849 390.184 327.145 391.208C326.505 392.232 325.865 392.744 325.225 392.744C324.649 392.744 324.201 392.136 323.881 390.92C323.561 389.768 323.305 388.36 323.113 386.696C322.921 385.032 322.793 383.336 322.729 381.608C322.665 379.88 322.633 378.44 322.633 377.288V352.712ZM325.705 338.792C325.001 338.92 324.009 338.728 322.729 338.216C321.513 337.64 320.521 336.904 319.753 336.008C319.241 335.432 318.985 334.76 318.985 333.992C319.049 333.16 319.241 332.392 319.561 331.688C319.945 330.92 320.425 330.28 321.001 329.768C321.641 329.256 322.313 329 323.017 329C323.785 329 324.553 329.128 325.321 329.384C326.153 329.576 326.889 329.896 327.529 330.344C328.233 330.728 328.809 331.176 329.257 331.688C329.705 332.2 329.929 332.744 329.929 333.32C329.929 334.408 329.513 335.56 328.681 336.776C327.849 337.992 326.857 338.664 325.705 338.792ZM397.495 320.456C404.343 320.456 410.295 321.736 415.351 324.296C420.407 326.856 424.311 330.632 427.062 335.624C429.879 340.552 431.287 346.696 431.287 354.056C431.287 365.64 428.119 374.376 421.783 380.264C415.511 386.088 406.711 389 395.383 389H377.047V358.856H369.943V351.368H377.047V320.456H397.495ZM396.247 327.848H385.687V351.368H402.775V358.856H385.687V381.608H394.327C412.887 381.608 422.167 372.52 422.167 354.344C422.167 345.192 419.895 338.504 415.351 334.28C410.807 329.992 404.439 327.848 396.247 327.848ZM464.836 336.68C471.108 336.68 475.748 338.056 478.756 340.808C481.764 343.56 483.268 347.944 483.268 353.96V389H477.124L475.492 381.704H475.108C472.868 384.52 470.5 386.6 468.004 387.944C465.572 389.288 462.18 389.96 457.828 389.96C453.156 389.96 449.284 388.744 446.212 386.312C443.14 383.816 441.604 379.944 441.604 374.696C441.604 369.576 443.62 365.64 447.652 362.888C451.684 360.072 457.892 358.536 466.276 358.28L475.012 357.992V354.92C475.012 350.632 474.084 347.656 472.228 345.992C470.372 344.328 467.748 343.496 464.356 343.496C461.668 343.496 459.108 343.912 456.676 344.744C454.244 345.512 451.972 346.408 449.859 347.432L447.268 341.096C449.508 339.88 452.164 338.856 455.236 338.024C458.308 337.128 461.508 336.68 464.836 336.68ZM474.916 363.848L467.332 364.136C460.932 364.392 456.484 365.416 453.988 367.208C451.556 369 450.34 371.528 450.34 374.792C450.34 377.672 451.204 379.784 452.932 381.128C454.724 382.472 456.996 383.144 459.748 383.144C464.1 383.144 467.716 381.96 470.596 379.592C473.476 377.16 474.916 373.448 474.916 368.456V363.848ZM479.524 317.96C479.204 321.8 477.732 324.904 475.108 327.272C472.548 329.64 468.964 330.824 464.356 330.824C459.62 330.824 456.036 329.672 453.604 327.368C451.236 325 449.924 321.864 449.668 317.96H454.852C455.172 320.584 456.132 322.248 457.732 322.952C459.332 323.656 461.604 324.008 464.548 324.008C467.044 324.008 469.188 323.624 470.98 322.856C472.836 322.088 473.924 320.456 474.244 317.96H479.524ZM462.436 405.896C461.092 405.896 459.908 405.448 458.884 404.552C457.924 403.656 457.444 402.312 457.444 400.52C457.444 398.664 457.924 397.288 458.884 396.392C459.908 395.56 461.092 395.144 462.436 395.144C463.78 395.144 464.932 395.56 465.892 396.392C466.916 397.288 467.428 398.664 467.428 400.52C467.428 402.312 466.916 403.656 465.892 404.552C464.932 405.448 463.78 405.896 462.436 405.896ZM501.848 344.264C501.848 342.28 501.72 340.712 501.464 339.56C501.272 338.408 500.728 337.224 499.832 336.008C499.64 335.816 499.512 335.528 499.448 335.144C499.448 334.696 499.48 334.248 499.544 333.8C499.608 333.352 499.736 332.936 499.928 332.552C500.12 332.168 500.344 331.88 500.6 331.688C501.112 331.432 501.88 331.528 502.904 331.976C503.928 332.36 504.952 332.904 505.976 333.608C507.064 334.248 508.024 334.952 508.856 335.72C509.688 336.424 510.2 336.968 510.392 337.352C510.968 338.056 511.256 338.792 511.256 339.56C510.936 340.712 510.744 341.736 510.68 342.632C510.68 343.464 510.68 344.456 510.68 345.608V347.816C512.152 347.624 513.592 347.432 515 347.24C516.408 346.984 517.848 346.728 519.32 346.472C519.704 346.408 520.12 346.408 520.568 346.472C521.08 346.536 521.56 346.664 522.008 346.856C522.456 346.984 522.84 347.176 523.16 347.432C523.48 347.624 523.64 347.816 523.64 348.008C523.64 348.52 523.48 349.096 523.16 349.736C522.904 350.312 522.52 350.888 522.008 351.464C521.56 351.976 521.048 352.424 520.472 352.808C519.96 353.192 519.48 353.384 519.032 353.384C517.176 353.384 515.384 353.48 513.656 353.672L510.68 353.96V366.632C510.68 368.872 510.712 371.144 510.776 373.448C510.84 375.688 511.096 377.768 511.544 379.688C511.992 381.544 512.728 383.08 513.752 384.296C514.776 385.448 516.248 386.024 518.168 386.024C518.616 386.024 519.096 385.992 519.608 385.928C520.184 385.864 520.696 385.832 521.144 385.832C521.656 385.768 522.072 385.8 522.392 385.928C522.776 385.992 522.968 386.184 522.968 386.504C522.968 386.76 522.84 387.112 522.584 387.56C522.392 388.008 522.04 388.488 521.528 389C521.08 389.448 520.44 389.864 519.608 390.248C518.84 390.696 517.912 390.984 516.824 391.112C514.392 391.432 512.056 391.144 509.816 390.248C507.64 389.352 506.008 388.104 504.92 386.504C503.384 384.328 502.488 381.704 502.232 378.632C501.976 375.56 501.848 371.688 501.848 367.016V354.92C500.952 354.984 500.056 355.016 499.16 355.016C498.264 355.016 497.304 355.016 496.28 355.016C495.896 355.016 495.384 354.92 494.744 354.728C494.168 354.536 493.592 354.28 493.016 353.96C492.44 353.576 491.928 353.16 491.48 352.712C491.096 352.264 490.904 351.784 490.904 351.272C490.968 350.888 491.096 350.504 491.288 350.12C491.544 349.672 491.768 349.416 491.96 349.352C492.536 349.352 493.144 349.352 493.784 349.352C494.424 349.288 495.064 349.224 495.704 349.16L501.848 348.488V344.264Z" fill="black"/>
<defs>
<filter id="filter0_i" x="135" y="135" width="459" height="459" filterUnits="userSpaceOnUse" color-interpolation-filters="sRGB">
<feFlood flood-opacity="0" result="BackgroundImageFix"/>
<feBlend mode="normal" in="SourceGraphic" in2="BackgroundImageFix" result="shape"/>
<feColorMatrix in="SourceAlpha" type="matrix" values="0 0 0 0 0 0 0 0 0 0 0 0 0 0 0 0 0 0 127 0" result="hardAlpha"/>
<feOffset dx="10" dy="10"/>
<feGaussianBlur stdDeviation="4.5"/>
<feComposite in2="hardAlpha" operator="arithmetic" k2="-1" k3="1"/>
<feColorMatrix type="matrix" values="0 0 0 0 0.30875 0 0 0 0 0.603725 0 0 0 0 0.95 0 0 0 1 0"/>
<feBlend mode="lighten" in2="shape" result="effect1_innerShadow"/>
</filter>
<filter id="filter1_f" x="216" y="182" width="170" height="170" filterUnits="userSpaceOnUse" color-interpolation-filters="sRGB">
<feFlood flood-opacity="0" result="BackgroundImageFix"/>
<feBlend mode="normal" in="SourceGraphic" in2="BackgroundImageFix" result="shape"/>
<feGaussianBlur stdDeviation="2.5" result="effect1_foregroundBlur"/>
</filter>
<filter id="filter2_df" x="241" y="201" width="100" height="100" filterUnits="userSpaceOnUse" color-interpolation-filters="sRGB">
<feFlood flood-opacity="0" result="BackgroundImageFix"/>
<feColorMatrix in="SourceAlpha" type="matrix" values="0 0 0 0 0 0 0 0 0 0 0 0 0 0 0 0 0 0 127 0"/>
<feOffset dy="4"/>
<feGaussianBlur stdDeviation="2"/>
<feColorMatrix type="matrix" values="0 0 0 0 1 0 0 0 0 1 0 0 0 0 1 0 0 0 0.25 0"/>
<feBlend mode="normal" in2="BackgroundImageFix" result="effect1_dropShadow"/>
<feBlend mode="normal" in="SourceGraphic" in2="effect1_dropShadow" result="shape"/>
<feGaussianBlur stdDeviation="5" result="effect2_foregroundBlur"/>
</filter>
</defs>
</svg>
